<svg width="109" height="124" viewBox="0 0 109 124" fill="none" xmlns="http://www.w3.org/2000/svg">
<g clip-path="url(#clip0_1135_2)">
<path d="M54.3235 31.8427L79.5757 47.0699L54.3235 61.5035L27.9303 47.0699L54.3235 31.8427Z" fill="url(#paint0_linear_1135_2)"/>
<path d="M27.9303 47.6158L54.3235 61.9998L54.1747 91.363L27.9303 77.475V47.6158Z" fill="url(#paint1_linear_1135_2)"/>
<path d="M54.3245 62L79.8743 47.616L80.6185 77.4752L54.6717 91.9088L54.3245 62Z" fill="url(#paint2_linear_1135_2)"/>
<path d="M106.812 30.008L106.415 29.76L81.2127 15.3264L54.8194 0.1984L54.4722 0L54.1745 0.1488C53.6788 0.325814 53.1977 0.541408 52.7358 0.7936L29.7161 14.2352L1.23919 30.9008C0.0485224 31.4464 0.0981338 32.6864 0.0981338 33.4304V33.976L0.0485225 76.2352L-0.00108886 91.9088C-0.0507002 92.8512 0.34619 93.6944 1.04075 93.992L33.7842 112.592L53.1327 123.603C53.5295 123.851 53.976 124 54.3729 124C54.7124 124.015 55.0464 123.91 55.3156 123.702L83.2963 107.582L107.11 93.8928C108.003 93.496 108.549 92.6032 108.4 91.76L108.499 32.3888C108.648 31 107.507 30.3552 106.812 30.008ZM54.2737 33.7776L77.343 47.1696L54.3233 60.4128L46.4847 55.9984L31.006 47.2192L54.2737 33.7776ZM80.4685 45.3344L55.4644 30.8016C55.1354 30.5595 54.7396 30.4248 54.3312 30.4159C53.9227 30.407 53.5215 30.5244 53.1823 30.752L27.8805 45.4336L4.86082 32.3888L20.9349 23.0144L54.3233 3.5216L85.0327 21.1296L103.786 31.8928L80.4685 45.3344ZM3.27326 35.1168L26.1937 48.112L26.6402 76.6816C26.5906 77.5744 27.0371 78.368 27.7316 78.7152L42.9623 87.4448L52.7358 93.0496V119.784L3.17404 91.6112L3.27326 35.1168ZM29.3688 49.8976L52.7854 63.1408L52.7358 89.4288L29.8153 76.2848L29.3688 49.8976ZM55.9109 93.0992L65.6843 87.4448L80.7662 78.8144L80.915 78.7152C81.2127 78.5664 81.5599 78.3184 81.808 77.9712L81.9568 77.7728V77.5248L81.9072 58.5776V48.1616L105.324 34.6208V57.6848L105.274 91.3136L73.8702 109.368L55.8613 119.734L55.9109 93.0992ZM55.9109 89.4784V63.1408L78.9802 49.848V76.2352L55.9109 89.4784Z" fill="#2F3329"/>
<path d="M53.6277 6.59641C52.9331 6.69561 52.3378 7.14201 52.0401 7.73721C51.7425 8.43161 51.7921 9.17561 52.1393 9.67161C52.5362 10.2668 53.1812 10.614 53.9254 10.614C54.0585 10.6048 54.191 10.5882 54.3222 10.5644C55.1656 10.4652 55.8106 9.87001 55.9594 9.12601C56.0625 8.80086 56.0755 8.45381 55.9969 8.12188C55.9182 7.78995 55.751 7.48558 55.5129 7.24121C55.2804 6.98109 54.9848 6.78515 54.6547 6.67223C54.3245 6.5593 53.9708 6.53319 53.6277 6.59641ZM54.9672 15.2764C54.223 14.8796 53.3796 14.9292 52.7843 15.326C52.2386 15.6236 51.8913 16.2188 51.7921 16.8636C51.7425 17.558 52.0401 18.1532 52.437 18.5004C52.6284 18.6825 52.8543 18.8246 53.1013 18.9183C53.3484 19.012 53.6117 19.0554 53.8757 19.046C54.1837 19.0408 54.4875 18.9733 54.7687 18.8476C55.5625 18.55 56.009 17.806 56.009 17.062C56.0586 16.3676 55.6121 15.6732 54.9672 15.2764ZM55.0168 23.8076C54.3222 23.3612 53.4788 23.3612 52.8339 23.7084C52.2386 24.006 51.8417 24.6012 51.7921 25.2956C51.7425 25.99 52.0401 26.734 52.5858 27.0812C52.9581 27.3564 53.4131 27.4964 53.8757 27.478C54.1837 27.4728 54.4875 27.4053 54.7687 27.2796C55.106 27.1448 55.3986 26.9177 55.6128 26.6245C55.8271 26.3312 55.9545 25.9835 55.9804 25.6213C56.0062 25.259 55.9296 24.8968 55.7592 24.5761C55.5888 24.2553 55.3315 23.989 55.0168 23.8076ZM21.3307 79.4092C20.5865 79.6076 20.0408 80.2028 19.892 80.9468C19.7431 81.7404 19.9912 82.4844 20.5369 82.9308C20.8808 83.228 21.3227 83.3871 21.7772 83.3772C21.9275 83.3781 22.0773 83.3614 22.2237 83.3276C22.8686 83.1788 23.4144 82.7324 23.6128 82.1868C23.9601 81.4924 23.8609 80.6492 23.2655 80.0044C23.0369 79.7265 22.7316 79.5219 22.3876 79.416C22.0436 79.3102 21.6761 79.3078 21.3307 79.4092ZM85.4286 83.4268C85.5979 83.4181 85.765 83.3847 85.9247 83.3276C86.5696 83.1788 87.1153 82.7324 87.2642 82.2364C87.6115 81.4924 87.4626 80.5996 86.9169 79.9548C86.6668 79.6772 86.3416 79.4779 85.9806 79.3811C85.6196 79.2843 85.2384 79.294 84.8828 79.4092C84.1883 79.6076 83.6425 80.2028 83.4937 80.9468C83.3449 81.7404 83.6425 82.4844 84.1883 82.9308C84.4859 83.278 84.9324 83.4268 85.4286 83.4268ZM14.0874 83.6748C13.3433 83.9228 12.8472 84.6172 12.7975 85.4108C12.6983 86.254 13.0952 87.0476 13.7402 87.3948C14.0366 87.5847 14.3803 87.6878 14.7324 87.6924C15.0243 87.6861 15.3117 87.6185 15.5758 87.494C16.2207 87.1964 16.6672 86.6012 16.7168 86.0556C16.8657 85.3116 16.568 84.518 15.9727 84.022C15.7239 83.791 15.4145 83.6356 15.0806 83.5741C14.7467 83.5126 14.4022 83.5476 14.0874 83.6748ZM92.4734 87.6428C92.709 87.6523 92.9444 87.6187 93.1679 87.5436C93.8625 87.2956 94.3586 86.7004 94.4082 86.1052C94.6067 85.3612 94.4082 84.6172 93.8129 84.0716C93.554 83.8237 93.2299 83.6547 92.8784 83.5844C92.5269 83.5141 92.1627 83.5455 91.8284 83.6748C91.4936 83.8132 91.1995 84.0346 90.9739 84.3181C90.7484 84.6016 90.5987 84.9379 90.5392 85.2952C90.4796 85.6525 90.5121 86.0191 90.6335 86.3604C90.7549 86.7017 90.9612 87.0065 91.2331 87.246C91.5901 87.514 92.0271 87.6538 92.4734 87.6428ZM8.63019 88.0892C8.03486 87.742 7.29069 87.742 6.74496 88.0892C6.10002 88.4364 5.70312 89.0812 5.70312 89.8748C5.70312 90.6684 6.10002 91.3628 6.74496 91.6604C7.01466 91.8224 7.32332 91.9082 7.63797 91.9084C8.02261 91.9144 8.40107 91.8112 8.72942 91.6108C9.37436 91.1644 9.72164 90.4204 9.67203 89.7756C9.67203 89.0812 9.27514 88.4364 8.63019 88.0396V88.0892ZM98.3771 91.462C98.7058 91.7518 99.1296 91.9107 99.5678 91.9084C99.8232 91.9084 100.076 91.8578 100.312 91.7596C101.007 91.462 101.503 90.7676 101.552 90.1724C101.701 89.3788 101.354 88.5852 100.659 88.1388C100.014 87.6924 99.2205 87.6924 98.6252 88.0892C98.3343 88.2676 98.0917 88.5147 97.9187 88.8087C97.7457 89.1028 97.6476 89.4348 97.6329 89.7756C97.5833 90.47 97.881 91.1148 98.3771 91.462Z" fill="#2F3329"/>
</g>
<defs>
<linearGradient id="paint0_linear_1135_2" x1="76.4401" y1="32.902" x2="54.3256" y2="73.1226" gradientUnits="userSpaceOnUse">
<stop offset="0.0001" stop-color="#00A3FF"/>
<stop offset="1" stop-color="#0054C6"/>
</linearGradient>
<linearGradient id="paint1_linear_1135_2" x1="52.7211" y1="49.1782" x2="17.8745" y2="71.1378" gradientUnits="userSpaceOnUse">
<stop offset="0.0001" stop-color="#00A3FF"/>
<stop offset="1" stop-color="#0054C6"/>
</linearGradient>
<linearGradient id="paint2_linear_1135_2" x1="79.0221" y1="49.1979" x2="43.9898" y2="70.9206" gradientUnits="userSpaceOnUse">
<stop offset="0.0001" stop-color="#00A3FF"/>
<stop offset="1" stop-color="#0054C6"/>
</linearGradient>
<clipPath id="clip0_1135_2">
<rect width="108.5" height="124" fill="white"/>
</clipPath>
</defs>
</svg>
